<svg id="visual" viewBox="0 0 900 900" width="900" height="900" xmlns="http://www.w3.org/2000/svg" xmlns:xlink="http://www.w3.org/1999/xlink" version="1.1"><rect x="0" y="0" width="900" height="900" fill="#FFFFFF"></rect><path d="M276 0L322 129L365 257L308 386L247 514L283 643L236 771L291 900L0 900L0 771L0 643L0 514L0 386L0 257L0 129L0 0Z" fill="#eee1cd"></path><path d="M201 0L223 129L302 257L277 386L255 514L189 643L227 771L290 900L0 900L0 771L0 643L0 514L0 386L0 257L0 129L0 0Z" fill="#eee1cd"></path><path d="M238 0L201 129L240 257L139 386L172 514L244 643L236 771L147 900L0 900L0 771L0 643L0 514L0 386L0 257L0 129L0 0Z" fill="#eee1cd"></path><path d="M149 0L126 129L92 257L116 386L154 514L125 643L124 771L143 900L0 900L0 771L0 643L0 514L0 386L0 257L0 129L0 0Z" fill="#eee1cd"></path><path d="M89 0L54 129L39 257L107 386L43 514L67 643L98 771L103 900L0 900L0 771L0 643L0 514L0 386L0 257L0 129L0 0Z" fill="#eee1cd"></path></svg>